<svg width="40" height="40" viewBox="0 0 40 40" fill="none" xmlns="http://www.w3.org/2000/svg">
<path d="M36.6654 35.4158H34.9987V16.6325C34.9987 15.5991 34.532 14.6325 33.7154 13.9991L31.6654 12.3991L31.632 8.3158C31.632 7.39914 30.882 6.6658 29.9654 6.6658H24.282L22.0487 4.93247C20.8487 3.98247 19.1487 3.98247 17.9487 4.93247L6.28203 13.9991C5.46536 14.6325 4.9987 15.5991 4.9987 16.6158L4.91536 35.4158H3.33203C2.6487 35.4158 2.08203 35.9825 2.08203 36.6658C2.08203 37.3491 2.6487 37.9158 3.33203 37.9158H36.6654C37.3487 37.9158 37.9154 37.3491 37.9154 36.6658C37.9154 35.9825 37.3487 35.4158 36.6654 35.4158ZM10.832 21.2491V18.7491C10.832 17.8325 11.582 17.0825 12.4987 17.0825H15.832C16.7487 17.0825 17.4987 17.8325 17.4987 18.7491V21.2491C17.4987 22.1658 16.7487 22.9158 15.832 22.9158H12.4987C11.582 22.9158 10.832 22.1658 10.832 21.2491ZM24.1654 35.4158H15.832V30.8325C15.832 29.4491 16.9487 28.3325 18.332 28.3325H21.6654C23.0487 28.3325 24.1654 29.4491 24.1654 30.8325V35.4158ZM29.1654 21.2491C29.1654 22.1658 28.4154 22.9158 27.4987 22.9158H24.1654C23.2487 22.9158 22.4987 22.1658 22.4987 21.2491V18.7491C22.4987 17.8325 23.2487 17.0825 24.1654 17.0825H27.4987C28.4154 17.0825 29.1654 17.8325 29.1654 18.7491V21.2491Z" fill="#FF8D28"/>
</svg>
