<svg width="197" height="40" viewBox="0 0 197 40" fill="none" xmlns="http://www.w3.org/2000/svg">
<path d="M36.6654 35.4158H34.9987V16.6325C34.9987 15.5991 34.532 14.6325 33.7154 13.9991L31.6654 12.3991L31.632 8.3158C31.632 7.39914 30.882 6.6658 29.9654 6.6658H24.282L22.0487 4.93247C20.8487 3.98247 19.1487 3.98247 17.9487 4.93247L6.28203 13.9991C5.46536 14.6325 4.9987 15.5991 4.9987 16.6158L4.91536 35.4158H3.33203C2.6487 35.4158 2.08203 35.9825 2.08203 36.6658C2.08203 37.3491 2.6487 37.9158 3.33203 37.9158H36.6654C37.3487 37.9158 37.9154 37.3491 37.9154 36.6658C37.9154 35.9825 37.3487 35.4158 36.6654 35.4158ZM10.832 21.2491V18.7491C10.832 17.8325 11.582 17.0825 12.4987 17.0825H15.832C16.7487 17.0825 17.4987 17.8325 17.4987 18.7491V21.2491C17.4987 22.1658 16.7487 22.9158 15.832 22.9158H12.4987C11.582 22.9158 10.832 22.1658 10.832 21.2491ZM24.1654 35.4158H15.832V30.8325C15.832 29.4491 16.9487 28.3325 18.332 28.3325H21.6654C23.0487 28.3325 24.1654 29.4491 24.1654 30.8325V35.4158ZM29.1654 21.2491C29.1654 22.1658 28.4154 22.9158 27.4987 22.9158H24.1654C23.2487 22.9158 22.4987 22.1658 22.4987 21.2491V18.7491C22.4987 17.8325 23.2487 17.0825 24.1654 17.0825H27.4987C28.4154 17.0825 29.1654 17.8325 29.1654 18.7491V21.2491Z" fill="#FF8D28"/>
<path d="M55.71 32.6875C54.6367 32.6875 53.75 32.3609 53.05 31.7075C52.35 31.0542 52 30.2259 52 29.2225V10.7075C52 9.68087 52.3383 8.82921 53.015 8.15254C53.6917 7.45254 54.5783 7.10254 55.675 7.10254C56.8417 7.10254 57.7517 7.45254 58.405 8.15254C59.0583 8.82921 59.385 9.65754 59.385 10.6375V17.1125H65.895V10.7075C65.895 9.68087 66.2333 8.82921 66.91 8.15254C67.5867 7.45254 68.4967 7.10254 69.64 7.10254C70.7833 7.10254 71.6817 7.45254 72.335 8.15254C72.9883 8.82921 73.315 9.65754 73.315 10.6375V29.2225C73.315 30.2259 72.965 31.0542 72.265 31.7075C71.5883 32.3609 70.7367 32.6875 69.71 32.6875C68.59 32.6875 67.6683 32.3609 66.945 31.7075C66.245 31.0542 65.895 30.2259 65.895 29.2225V22.2575H59.385V29.2225C59.385 30.2259 59.035 31.0542 58.335 31.7075C57.6583 32.3609 56.7833 32.6875 55.71 32.6875Z" fill="#FF8D28"/>
<path d="M86.137 32.8975C83.6404 32.8975 81.5287 32.3492 79.802 31.2525C78.0754 30.1559 76.7687 28.6392 75.882 26.7025C74.9954 24.7659 74.552 22.5375 74.552 20.0175C74.552 17.5209 74.9954 15.3042 75.882 13.3675C76.7687 11.4075 78.0754 9.8792 79.802 8.78254C81.5287 7.66254 83.6404 7.10254 86.137 7.10254C88.6337 7.10254 90.7337 7.66254 92.437 8.78254C94.1637 9.8792 95.4704 11.4075 96.357 13.3675C97.2437 15.3042 97.687 17.5209 97.687 20.0175C97.687 22.5375 97.2437 24.7659 96.357 26.7025C95.4704 28.6392 94.1637 30.1559 92.437 31.2525C90.7337 32.3492 88.6337 32.8975 86.137 32.8975ZM78.962 19.4575C78.962 20.1809 79.137 20.8692 79.487 21.5225C79.837 22.1525 80.5254 22.6659 81.552 23.0625C82.5787 23.4359 84.107 23.6225 86.137 23.6225C88.167 23.6225 89.6837 23.4359 90.687 23.0625C91.7137 22.6659 92.402 22.1525 92.752 21.5225C93.102 20.8692 93.277 20.1809 93.277 19.4575C93.277 18.7109 93.102 18.0459 92.752 17.4625C92.402 16.8559 91.7137 16.3775 90.687 16.0275C89.6837 15.6542 88.167 15.4675 86.137 15.4675C84.107 15.4675 82.5787 15.6542 81.552 16.0275C80.5254 16.3775 79.837 16.8559 79.487 17.4625C79.137 18.0459 78.962 18.7109 78.962 19.4575Z" fill="#FF8D28"/>
<path d="M109.264 32.8975C107.958 32.8975 106.639 32.7692 105.309 32.5125C104.003 32.2325 102.789 31.8359 101.669 31.3225C100.573 30.7859 99.686 30.1442 99.0094 29.3975C98.3327 28.6275 97.9944 27.7409 97.9944 26.7375C97.9944 25.4542 98.4027 24.4275 99.2194 23.6575C100.036 22.8875 100.993 22.5259 102.089 22.5725C102.953 22.5959 103.816 22.7825 104.679 23.1325C105.543 23.4592 106.418 23.7859 107.304 24.1125C108.214 24.4392 109.124 24.6025 110.034 24.6025C110.944 24.6025 111.574 24.4859 111.924 24.2525C112.274 24.0192 112.449 23.7042 112.449 23.3075C112.449 22.8409 112.204 22.4559 111.714 22.1525C111.224 21.8492 110.606 21.6159 109.859 21.4525L108.144 21.0325C106.371 20.6125 104.784 20.1459 103.384 19.6325C101.984 19.0959 100.876 18.3959 100.059 17.5325C99.266 16.6459 98.8694 15.4675 98.8694 13.9975C98.8694 12.3875 99.3127 11.0809 100.199 10.0775C101.086 9.05087 102.288 8.30421 103.804 7.83754C105.321 7.37087 107.013 7.13754 108.879 7.13754C110.793 7.13754 112.473 7.33587 113.919 7.73254C115.366 8.1292 116.486 8.70087 117.279 9.44754C118.096 10.1942 118.504 11.1042 118.504 12.1775C118.504 13.3209 118.189 14.2192 117.559 14.8725C116.953 15.5025 116.136 15.8175 115.109 15.8175C114.433 15.8175 113.721 15.7009 112.974 15.4675C112.251 15.2342 111.481 15.0125 110.664 14.8025C109.871 14.5692 109.019 14.4525 108.109 14.4525C107.293 14.4525 106.674 14.5809 106.254 14.8375C105.834 15.0709 105.624 15.3859 105.624 15.7825C105.624 16.2725 105.904 16.6342 106.464 16.8675C107.024 17.1009 107.946 17.3809 109.229 17.7075L111.189 18.1625C112.799 18.5592 114.211 19.0375 115.424 19.5975C116.638 20.1575 117.583 20.8925 118.259 21.8025C118.936 22.7125 119.274 23.9025 119.274 25.3725C119.274 27.1459 118.854 28.5925 118.014 29.7125C117.174 30.8092 116.008 31.6142 114.514 32.1275C113.021 32.6409 111.271 32.8975 109.264 32.8975Z" fill="#FF8D28"/>
<path d="M123.817 15.0825C122.65 15.0825 121.694 14.7442 120.947 14.0675C120.224 13.3909 119.862 12.4575 119.862 11.2675C119.862 10.1009 120.189 9.16754 120.842 8.46754C121.519 7.74421 122.51 7.38254 123.817 7.38254H138.902C140.209 7.38254 141.189 7.74421 141.842 8.46754C142.519 9.16754 142.857 10.1009 142.857 11.2675C142.857 12.4575 142.484 13.3909 141.737 14.0675C141.014 14.7442 140.069 15.0825 138.902 15.0825C138.109 15.0825 137.467 15.0009 136.977 14.8375C136.51 14.6509 136.125 14.4409 135.822 14.2075C135.519 13.9509 135.227 13.7409 134.947 13.5775C134.667 13.3909 134.317 13.2975 133.897 13.2975L133.582 13.9275C133.675 14.1375 133.839 14.4409 134.072 14.8375C134.305 15.2109 134.527 15.7592 134.737 16.4825C134.947 17.1825 135.052 18.1392 135.052 19.3525V29.4675C135.052 30.4242 134.69 31.2175 133.967 31.8475C133.267 32.4775 132.404 32.7925 131.377 32.7925C130.327 32.7925 129.44 32.4775 128.717 31.8475C128.017 31.2175 127.667 30.4242 127.667 29.4675V19.3525C127.667 18.1392 127.772 17.1825 127.982 16.4825C128.192 15.7592 128.414 15.2109 128.647 14.8375C128.904 14.4409 129.079 14.1375 129.172 13.9275L128.822 13.2975C128.402 13.2975 128.052 13.3909 127.772 13.5775C127.492 13.7409 127.2 13.9509 126.897 14.2075C126.594 14.4409 126.209 14.6509 125.742 14.8375C125.275 15.0009 124.634 15.0825 123.817 15.0825Z" fill="#FF8D28"/>
<path d="M147.583 32.8625C146.51 32.8625 145.635 32.5359 144.958 31.8825C144.282 31.2292 143.943 30.4009 143.943 29.3975V10.8825C143.943 9.85587 144.27 8.99254 144.923 8.29254C145.6 7.59254 146.487 7.24254 147.583 7.24254C148.75 7.24254 149.66 7.59254 150.313 8.29254C150.99 8.96921 151.328 9.80921 151.328 10.8125V29.3975C151.328 30.4009 150.967 31.2292 150.243 31.8825C149.543 32.5359 148.657 32.8625 147.583 32.8625Z" fill="#FF8D28"/>
<path d="M157.292 32.7925C156.149 32.7925 155.239 32.4775 154.562 31.8475C153.909 31.2175 153.582 30.2959 153.582 29.0825V24.1475C153.582 21.6742 153.955 19.7959 154.702 18.5125C155.449 17.2292 156.394 16.3075 157.537 15.7475L157.362 15.0825H156.767C155.694 15.0825 154.842 14.7442 154.212 14.0675C153.605 13.3675 153.29 12.4225 153.267 11.2325C153.244 10.0659 153.547 9.13254 154.177 8.43254C154.83 7.73254 155.694 7.38254 156.767 7.38254H169.017C171.514 7.38254 172.762 8.54921 172.762 10.8825C172.762 11.9325 172.459 12.7725 171.852 13.4025C171.245 14.0325 170.3 14.3475 169.017 14.3475H162.192C161.329 14.3475 160.897 14.8492 160.897 15.8525V18.3725C161.994 18.0692 163.137 17.7192 164.327 17.3225C165.517 16.9259 166.66 16.7275 167.757 16.7275C168.924 16.7275 169.822 17.0192 170.452 17.6025C171.105 18.1625 171.432 19.0259 171.432 20.1925C171.432 21.3359 171.105 22.1992 170.452 22.7825C169.822 23.3425 168.924 23.6342 167.757 23.6575C166.66 23.6809 165.505 23.5059 164.292 23.1325C163.102 22.7359 161.959 22.3859 160.862 22.0825L160.827 29.0825C160.827 30.2959 160.5 31.2175 159.847 31.8475C159.217 32.4775 158.365 32.7925 157.292 32.7925Z" fill="#FF8D28"/>
<path d="M174.644 14.0675C173.967 12.6209 173.816 11.3259 174.189 10.1825C174.562 9.01587 175.274 8.19921 176.324 7.73254C177.397 7.26587 178.482 7.26587 179.579 7.73254C180.699 8.17587 181.516 9.12087 182.029 10.5675C182.286 11.2909 182.472 12.1309 182.589 13.0875C182.706 14.0209 182.834 14.9309 182.974 15.8175C183.137 16.6809 183.394 17.4042 183.744 17.9875C184.117 18.5475 184.689 18.8275 185.459 18.8275C186.229 18.8275 186.801 18.5475 187.174 17.9875C187.547 17.4042 187.804 16.6809 187.944 15.8175C188.107 14.9309 188.236 14.0209 188.329 13.0875C188.446 12.1309 188.632 11.2909 188.889 10.5675C189.426 9.12087 190.242 8.17587 191.339 7.73254C192.436 7.26587 193.521 7.26587 194.594 7.73254C195.644 8.19921 196.356 9.01587 196.729 10.1825C197.102 11.3259 196.951 12.6209 196.274 14.0675C195.924 14.8142 195.457 15.5259 194.874 16.2025C194.314 16.8559 193.696 17.5325 193.019 18.2325C192.342 18.9325 191.666 19.7142 190.989 20.5775C190.312 21.4175 189.694 22.3859 189.134 23.4825V29.4675C189.134 30.4242 188.784 31.2175 188.084 31.8475C187.384 32.4775 186.509 32.7925 185.459 32.7925C184.432 32.7925 183.557 32.4775 182.834 31.8475C182.134 31.2175 181.784 30.4242 181.784 29.4675V23.4825C181.247 22.3859 180.641 21.4175 179.964 20.5775C179.287 19.7142 178.611 18.9325 177.934 18.2325C177.257 17.5325 176.627 16.8559 176.044 16.2025C175.461 15.5259 174.994 14.8142 174.644 14.0675Z" fill="#FF8D28"/>
</svg>
